<mxfile host="app.diagrams.net" modified="2021-04-25T22:06:19.396Z" agent="5.0 (X11)" etag="wcQpX1kuvv1-Y12bueRv" version="14.6.6" type="github">
  <diagram name="Page-1" id="b5b7bab2-c9e2-2cf4-8b2a-24fd1a2a6d21">
    <mxGraphModel dx="1422" dy="1931" grid="1" gridSize="10" guides="1" tooltips="1" connect="1" arrows="1" fold="1" page="1" pageScale="1" pageWidth="827" pageHeight="1169" background="#ffffff" math="0" shadow="0">
      <root>
        <mxCell id="0" />
        <mxCell id="1" parent="0" />
        <mxCell id="oHwL_k7ugt9B2P9wREWz-135" value="" style="rounded=0;whiteSpace=wrap;html=1;" parent="1" vertex="1">
          <mxGeometry x="480" y="-10" width="880" height="1620" as="geometry" />
        </mxCell>
        <mxCell id="oHwL_k7ugt9B2P9wREWz-131" style="edgeStyle=none;rounded=0;orthogonalLoop=1;jettySize=auto;html=1;entryX=0;entryY=0;entryDx=0;entryDy=250;entryPerimeter=0;endArrow=none;endFill=0;strokeWidth=3;" parent="1" source="oHwL_k7ugt9B2P9wREWz-1" target="oHwL_k7ugt9B2P9wREWz-96" edge="1">
          <mxGeometry relative="1" as="geometry" />
        </mxCell>
        <mxCell id="oHwL_k7ugt9B2P9wREWz-133" style="edgeStyle=none;rounded=0;orthogonalLoop=1;jettySize=auto;html=1;entryX=0;entryY=0;entryDx=0;entryDy=205;entryPerimeter=0;endArrow=none;endFill=0;strokeWidth=3;" parent="1" source="oHwL_k7ugt9B2P9wREWz-1" target="oHwL_k7ugt9B2P9wREWz-90" edge="1">
          <mxGeometry relative="1" as="geometry">
            <mxPoint x="630" y="850.4545454545455" as="sourcePoint" />
          </mxGeometry>
        </mxCell>
        <mxCell id="oHwL_k7ugt9B2P9wREWz-134" style="edgeStyle=none;rounded=0;orthogonalLoop=1;jettySize=auto;html=1;entryX=0;entryY=0;entryDx=0;entryDy=194.75;entryPerimeter=0;endArrow=none;endFill=0;strokeWidth=3;" parent="1" source="oHwL_k7ugt9B2P9wREWz-1" target="oHwL_k7ugt9B2P9wREWz-83" edge="1">
          <mxGeometry relative="1" as="geometry" />
        </mxCell>
        <mxCell id="oHwL_k7ugt9B2P9wREWz-1" value="&lt;div&gt;Logged in &lt;br&gt;&lt;/div&gt;&lt;div&gt;user&lt;/div&gt;" style="shape=umlActor;verticalLabelPosition=bottom;verticalAlign=top;html=1;outlineConnect=0;fontSize=22;" parent="1" vertex="1">
          <mxGeometry x="90" y="710" width="100" height="170" as="geometry" />
        </mxCell>
        <mxCell id="oHwL_k7ugt9B2P9wREWz-87" value="" style="group" parent="1" vertex="1" connectable="0">
          <mxGeometry x="560" y="1230" width="600" height="365.5" as="geometry" />
        </mxCell>
        <mxCell id="oHwL_k7ugt9B2P9wREWz-84" value="Space management" style="text;html=1;align=center;verticalAlign=middle;resizable=0;points=[];autosize=1;" parent="oHwL_k7ugt9B2P9wREWz-87" vertex="1">
          <mxGeometry x="41.37931034482758" width="120" height="20" as="geometry" />
        </mxCell>
        <mxCell id="oHwL_k7ugt9B2P9wREWz-88" value="" style="group" parent="oHwL_k7ugt9B2P9wREWz-87" vertex="1" connectable="0">
          <mxGeometry x="10" y="-10" width="599.9999999999999" height="365.5" as="geometry" />
        </mxCell>
        <mxCell id="oHwL_k7ugt9B2P9wREWz-83" value="" style="shape=folder;fontStyle=1;spacingTop=10;tabWidth=160;tabHeight=24;tabPosition=left;html=1;" parent="oHwL_k7ugt9B2P9wREWz-88" vertex="1">
          <mxGeometry width="599.9999999999999" height="365.5" as="geometry" />
        </mxCell>
        <mxCell id="oHwL_k7ugt9B2P9wREWz-53" value="Space management" style="ellipse;whiteSpace=wrap;html=1;" parent="oHwL_k7ugt9B2P9wREWz-88" vertex="1">
          <mxGeometry x="20" y="62.75" width="120" height="80" as="geometry" />
        </mxCell>
        <mxCell id="oHwL_k7ugt9B2P9wREWz-54" value="Create space" style="ellipse;whiteSpace=wrap;html=1;fillColor=#d5e8d4;strokeColor=#82b366;" parent="oHwL_k7ugt9B2P9wREWz-88" vertex="1">
          <mxGeometry x="230" y="42.75" width="120" height="80" as="geometry" />
        </mxCell>
        <mxCell id="oHwL_k7ugt9B2P9wREWz-55" style="edgeStyle=none;rounded=0;orthogonalLoop=1;jettySize=auto;html=1;exitX=1;exitY=1;exitDx=0;exitDy=0;dashed=1;endArrow=block;endFill=1;" parent="oHwL_k7ugt9B2P9wREWz-88" source="oHwL_k7ugt9B2P9wREWz-54" target="oHwL_k7ugt9B2P9wREWz-54" edge="1">
          <mxGeometry relative="1" as="geometry" />
        </mxCell>
        <mxCell id="oHwL_k7ugt9B2P9wREWz-56" value="Manage permissions" style="ellipse;whiteSpace=wrap;html=1;" parent="oHwL_k7ugt9B2P9wREWz-88" vertex="1">
          <mxGeometry x="224" y="142.75" width="120" height="80" as="geometry" />
        </mxCell>
        <mxCell id="oHwL_k7ugt9B2P9wREWz-62" value="Delete space" style="ellipse;whiteSpace=wrap;html=1;fillColor=#d5e8d4;strokeColor=#82b366;" parent="oHwL_k7ugt9B2P9wREWz-88" vertex="1">
          <mxGeometry x="224" y="242.75" width="120" height="80" as="geometry" />
        </mxCell>
        <mxCell id="oHwL_k7ugt9B2P9wREWz-69" value="&amp;lt;&amp;lt;extends&amp;gt;&amp;gt;" style="edgeStyle=none;rounded=0;orthogonalLoop=1;jettySize=auto;html=1;dashed=1;endArrow=block;endFill=1;" parent="oHwL_k7ugt9B2P9wREWz-88" source="oHwL_k7ugt9B2P9wREWz-54" target="oHwL_k7ugt9B2P9wREWz-53" edge="1">
          <mxGeometry relative="1" as="geometry">
            <mxPoint x="229.69374608556063" y="132.7498381285344" as="sourcePoint" />
            <mxPoint x="101.69750127224461" y="155.7770203213812" as="targetPoint" />
          </mxGeometry>
        </mxCell>
        <mxCell id="oHwL_k7ugt9B2P9wREWz-85" value="&amp;lt;&amp;lt;extends&amp;gt;&amp;gt;" style="edgeStyle=none;rounded=0;orthogonalLoop=1;jettySize=auto;html=1;dashed=1;endArrow=block;endFill=1;" parent="oHwL_k7ugt9B2P9wREWz-88" source="oHwL_k7ugt9B2P9wREWz-62" target="oHwL_k7ugt9B2P9wREWz-53" edge="1">
          <mxGeometry relative="1" as="geometry">
            <mxPoint x="242.24166153386636" y="172.51719496323858" as="sourcePoint" />
            <mxPoint x="141.67998858959413" y="133.07162263184023" as="targetPoint" />
          </mxGeometry>
        </mxCell>
        <mxCell id="oHwL_k7ugt9B2P9wREWz-86" value="&amp;lt;&amp;lt;extends&amp;gt;&amp;gt;" style="edgeStyle=none;rounded=0;orthogonalLoop=1;jettySize=auto;html=1;dashed=1;endArrow=block;endFill=1;" parent="oHwL_k7ugt9B2P9wREWz-88" source="oHwL_k7ugt9B2P9wREWz-56" target="oHwL_k7ugt9B2P9wREWz-53" edge="1">
          <mxGeometry relative="1" as="geometry">
            <mxPoint x="470.00000000000546" y="192.75" as="sourcePoint" />
            <mxPoint x="354" y="192.75" as="targetPoint" />
          </mxGeometry>
        </mxCell>
        <mxCell id="oHwL_k7ugt9B2P9wREWz-125" value="&lt;b&gt;&lt;font style=&quot;font-size: 14px&quot;&gt;Space management&lt;/font&gt;&lt;/b&gt;" style="text;html=1;strokeColor=none;fillColor=none;align=center;verticalAlign=middle;whiteSpace=wrap;rounded=0;" parent="oHwL_k7ugt9B2P9wREWz-88" vertex="1">
          <mxGeometry x="8.5" width="143" height="20" as="geometry" />
        </mxCell>
        <mxCell id="oHwL_k7ugt9B2P9wREWz-92" value="" style="group" parent="1" vertex="1" connectable="0">
          <mxGeometry x="571" y="810" width="670" height="390" as="geometry" />
        </mxCell>
        <mxCell id="oHwL_k7ugt9B2P9wREWz-90" value="" style="shape=folder;fontStyle=1;spacingTop=10;tabWidth=185;tabHeight=20;tabPosition=left;html=1;" parent="oHwL_k7ugt9B2P9wREWz-92" vertex="1">
          <mxGeometry width="670" height="390" as="geometry" />
        </mxCell>
        <mxCell id="oHwL_k7ugt9B2P9wREWz-46" value="Manage keys" style="ellipse;whiteSpace=wrap;html=1;" parent="oHwL_k7ugt9B2P9wREWz-92" vertex="1">
          <mxGeometry x="60" y="100" width="120" height="80" as="geometry" />
        </mxCell>
        <mxCell id="oHwL_k7ugt9B2P9wREWz-47" value="Regenerate keys" style="ellipse;whiteSpace=wrap;html=1;fillColor=#d5e8d4;strokeColor=#82b366;" parent="oHwL_k7ugt9B2P9wREWz-92" vertex="1">
          <mxGeometry x="280" y="40" width="120" height="80" as="geometry" />
        </mxCell>
        <mxCell id="oHwL_k7ugt9B2P9wREWz-48" value="Delete keys" style="ellipse;whiteSpace=wrap;html=1;fillColor=#d5e8d4;strokeColor=#82b366;" parent="oHwL_k7ugt9B2P9wREWz-92" vertex="1">
          <mxGeometry x="280" y="125" width="120" height="80" as="geometry" />
        </mxCell>
        <mxCell id="oHwL_k7ugt9B2P9wREWz-49" value="&amp;lt;&amp;lt;extends&amp;gt;&amp;gt;" style="rounded=0;orthogonalLoop=1;jettySize=auto;html=1;dashed=1;endArrow=block;endFill=1;" parent="oHwL_k7ugt9B2P9wREWz-92" source="oHwL_k7ugt9B2P9wREWz-47" target="oHwL_k7ugt9B2P9wREWz-46" edge="1">
          <mxGeometry relative="1" as="geometry">
            <mxPoint x="310.19469721323594" y="55.45355114549625" as="sourcePoint" />
            <mxPoint x="170.00039650053577" y="50.00386140386672" as="targetPoint" />
          </mxGeometry>
        </mxCell>
        <mxCell id="oHwL_k7ugt9B2P9wREWz-50" value="&amp;lt;&amp;lt;extends&amp;gt;&amp;gt;" style="rounded=0;orthogonalLoop=1;jettySize=auto;html=1;dashed=1;endArrow=block;endFill=1;" parent="oHwL_k7ugt9B2P9wREWz-92" source="oHwL_k7ugt9B2P9wREWz-48" target="oHwL_k7ugt9B2P9wREWz-46" edge="1">
          <mxGeometry relative="1" as="geometry">
            <mxPoint x="320.09469721323603" y="7.753551145496203" as="sourcePoint" />
            <mxPoint x="179.90039650053586" y="2.3038614038666765" as="targetPoint" />
          </mxGeometry>
        </mxCell>
        <mxCell id="oHwL_k7ugt9B2P9wREWz-70" value="Exchange keys" style="ellipse;whiteSpace=wrap;html=1;" parent="oHwL_k7ugt9B2P9wREWz-92" vertex="1">
          <mxGeometry x="280" y="230" width="120" height="80" as="geometry" />
        </mxCell>
        <mxCell id="oHwL_k7ugt9B2P9wREWz-71" value="Bluetooth" style="ellipse;whiteSpace=wrap;html=1;" parent="oHwL_k7ugt9B2P9wREWz-92" vertex="1">
          <mxGeometry x="460" y="170" width="120" height="80" as="geometry" />
        </mxCell>
        <mxCell id="oHwL_k7ugt9B2P9wREWz-72" value="Generate QR Code" style="ellipse;whiteSpace=wrap;html=1;" parent="oHwL_k7ugt9B2P9wREWz-92" vertex="1">
          <mxGeometry x="460" y="310" width="120" height="80" as="geometry" />
        </mxCell>
        <mxCell id="oHwL_k7ugt9B2P9wREWz-74" value="&amp;lt;&amp;lt;extends&amp;gt;&amp;gt;" style="rounded=0;orthogonalLoop=1;jettySize=auto;html=1;dashed=1;endArrow=block;endFill=1;" parent="oHwL_k7ugt9B2P9wREWz-92" source="oHwL_k7ugt9B2P9wREWz-70" target="oHwL_k7ugt9B2P9wREWz-46" edge="1">
          <mxGeometry relative="1" as="geometry">
            <mxPoint x="294.35983380905554" y="195.0308182328929" as="sourcePoint" />
            <mxPoint x="185.5328173723492" y="165.14531382882205" as="targetPoint" />
          </mxGeometry>
        </mxCell>
        <mxCell id="oHwL_k7ugt9B2P9wREWz-75" value="&amp;lt;&amp;lt;extends&amp;gt;&amp;gt;" style="rounded=0;orthogonalLoop=1;jettySize=auto;html=1;dashed=1;endArrow=block;endFill=1;" parent="oHwL_k7ugt9B2P9wREWz-92" source="oHwL_k7ugt9B2P9wREWz-71" target="oHwL_k7ugt9B2P9wREWz-70" edge="1">
          <mxGeometry relative="1" as="geometry">
            <mxPoint x="220.0047640282353" y="421.547047065701" as="sourcePoint" />
            <mxPoint x="193.10445871662046" y="358.4435361899393" as="targetPoint" />
          </mxGeometry>
        </mxCell>
        <mxCell id="oHwL_k7ugt9B2P9wREWz-76" value="&amp;lt;&amp;lt;extends&amp;gt;&amp;gt;" style="rounded=0;orthogonalLoop=1;jettySize=auto;html=1;dashed=1;endArrow=block;endFill=1;" parent="oHwL_k7ugt9B2P9wREWz-92" source="oHwL_k7ugt9B2P9wREWz-72" target="oHwL_k7ugt9B2P9wREWz-70" edge="1">
          <mxGeometry relative="1" as="geometry">
            <mxPoint x="170.0047640282353" y="443.10704706570095" as="sourcePoint" />
            <mxPoint x="143.10445871662046" y="380.00353618993927" as="targetPoint" />
          </mxGeometry>
        </mxCell>
        <mxCell id="oHwL_k7ugt9B2P9wREWz-126" value="&lt;b&gt;&lt;font style=&quot;font-size: 14px&quot;&gt;Key management&lt;/font&gt;&lt;/b&gt;" style="text;html=1;strokeColor=none;fillColor=none;align=center;verticalAlign=middle;whiteSpace=wrap;rounded=0;" parent="oHwL_k7ugt9B2P9wREWz-92" vertex="1">
          <mxGeometry x="25" width="143" height="20" as="geometry" />
        </mxCell>
        <mxCell id="oHwL_k7ugt9B2P9wREWz-99" value="" style="group" parent="1" vertex="1" connectable="0">
          <mxGeometry x="570" y="560" width="460" height="220" as="geometry" />
        </mxCell>
        <mxCell id="oHwL_k7ugt9B2P9wREWz-93" value="" style="shape=folder;fontStyle=1;spacingTop=10;tabWidth=166;tabHeight=21;tabPosition=left;html=1;" parent="oHwL_k7ugt9B2P9wREWz-99" vertex="1">
          <mxGeometry width="460.00000000000006" height="220" as="geometry" />
        </mxCell>
        <mxCell id="oHwL_k7ugt9B2P9wREWz-40" value="Login" style="ellipse;whiteSpace=wrap;html=1;fillColor=#d5e8d4;strokeColor=#82b366;" parent="oHwL_k7ugt9B2P9wREWz-99" vertex="1">
          <mxGeometry x="61.43487858719647" y="80" width="121.8543046357616" height="80" as="geometry" />
        </mxCell>
        <mxCell id="oHwL_k7ugt9B2P9wREWz-41" value="Register" style="ellipse;whiteSpace=wrap;html=1;fillColor=#d5e8d4;strokeColor=#82b366;" parent="oHwL_k7ugt9B2P9wREWz-99" vertex="1">
          <mxGeometry x="297.5275938189846" y="80" width="121.8543046357616" height="80" as="geometry" />
        </mxCell>
        <mxCell id="oHwL_k7ugt9B2P9wREWz-44" value="&amp;lt;&amp;lt;extends&amp;gt;&amp;gt;" style="rounded=0;orthogonalLoop=1;jettySize=auto;html=1;dashed=1;endArrow=block;endFill=1;" parent="oHwL_k7ugt9B2P9wREWz-99" source="oHwL_k7ugt9B2P9wREWz-41" target="oHwL_k7ugt9B2P9wREWz-40" edge="1">
          <mxGeometry relative="1" as="geometry">
            <mxPoint x="381.37715858554384" y="199.9957287525383" as="sourcePoint" />
            <mxPoint x="229.8548130107738" y="144.31620237985112" as="targetPoint" />
          </mxGeometry>
        </mxCell>
        <mxCell id="oHwL_k7ugt9B2P9wREWz-129" value="&lt;b style=&quot;font-size: 13px&quot;&gt;&lt;font style=&quot;font-size: 14px&quot;&gt;User&lt;/font&gt; &lt;font style=&quot;font-size: 14px&quot;&gt;management&lt;/font&gt;&lt;/b&gt;" style="text;html=1;strokeColor=none;fillColor=none;align=center;verticalAlign=middle;whiteSpace=wrap;rounded=0;" parent="oHwL_k7ugt9B2P9wREWz-99" vertex="1">
          <mxGeometry x="16.247240618101547" width="145.20971302428256" height="20" as="geometry" />
        </mxCell>
        <mxCell id="oHwL_k7ugt9B2P9wREWz-103" value="" style="group" parent="1" vertex="1" connectable="0">
          <mxGeometry x="570" y="30" width="720" height="500" as="geometry" />
        </mxCell>
        <mxCell id="oHwL_k7ugt9B2P9wREWz-96" value="" style="shape=folder;fontStyle=1;spacingTop=10;tabWidth=180;tabHeight=20;tabPosition=left;html=1;" parent="oHwL_k7ugt9B2P9wREWz-103" vertex="1">
          <mxGeometry width="720" height="500.00000000000006" as="geometry" />
        </mxCell>
        <mxCell id="oHwL_k7ugt9B2P9wREWz-10" value="Upload" style="ellipse;whiteSpace=wrap;html=1;fillColor=#d5e8d4;strokeColor=#82b366;" parent="oHwL_k7ugt9B2P9wREWz-103" vertex="1">
          <mxGeometry x="22.736842105263158" y="369.99545454545455" width="113.68421052631578" height="72.72727272727273" as="geometry" />
        </mxCell>
        <mxCell id="oHwL_k7ugt9B2P9wREWz-13" value="Encrypt " style="ellipse;whiteSpace=wrap;html=1;" parent="oHwL_k7ugt9B2P9wREWz-103" vertex="1">
          <mxGeometry x="269.9994736842105" y="369.9963636363637" width="113.68421052631578" height="72.72727272727273" as="geometry" />
        </mxCell>
        <mxCell id="oHwL_k7ugt9B2P9wREWz-26" value="&amp;lt;&amp;lt;includes&amp;gt;&amp;gt;" style="edgeStyle=none;rounded=0;orthogonalLoop=1;jettySize=auto;html=1;dashed=1;endArrow=block;endFill=1;exitX=1;exitY=0.5;exitDx=0;exitDy=0;" parent="oHwL_k7ugt9B2P9wREWz-103" source="oHwL_k7ugt9B2P9wREWz-10" target="oHwL_k7ugt9B2P9wREWz-13" edge="1">
          <mxGeometry x="-6.157894736842105" y="218.1818181818182" as="geometry">
            <mxPoint x="366.3418566595292" y="352.99976866839825" as="sourcePoint" />
          </mxGeometry>
        </mxCell>
        <mxCell id="oHwL_k7ugt9B2P9wREWz-12" value="&lt;div&gt;Download&lt;br&gt;&lt;/div&gt;" style="ellipse;whiteSpace=wrap;html=1;" parent="oHwL_k7ugt9B2P9wREWz-103" vertex="1">
          <mxGeometry x="22.736842105263158" y="75.90909090909092" width="113.68421052631578" height="72.72727272727273" as="geometry" />
        </mxCell>
        <mxCell id="oHwL_k7ugt9B2P9wREWz-35" value="Decrypt" style="ellipse;whiteSpace=wrap;html=1;" parent="oHwL_k7ugt9B2P9wREWz-103" vertex="1">
          <mxGeometry x="489.99736842105267" y="75.90818181818183" width="113.68421052631578" height="72.72727272727273" as="geometry" />
        </mxCell>
        <mxCell id="oHwL_k7ugt9B2P9wREWz-37" value="Personal container" style="ellipse;whiteSpace=wrap;html=1;" parent="oHwL_k7ugt9B2P9wREWz-103" vertex="1">
          <mxGeometry x="20.004736842105274" y="266.81454545454545" width="113.68421052631578" height="72.72727272727273" as="geometry" />
        </mxCell>
        <mxCell id="oHwL_k7ugt9B2P9wREWz-33" value="&amp;lt;&amp;lt;includes&amp;gt;&amp;gt;" style="edgeStyle=none;rounded=0;orthogonalLoop=1;jettySize=auto;html=1;dashed=1;endArrow=block;endFill=1;exitX=1;exitY=0.5;exitDx=0;exitDy=0;" parent="oHwL_k7ugt9B2P9wREWz-103" source="oHwL_k7ugt9B2P9wREWz-12" target="oHwL_k7ugt9B2P9wREWz-35" edge="1">
          <mxGeometry x="9.473684210526315" as="geometry">
            <mxPoint x="365.15515383639604" y="83.23273831243341" as="sourcePoint" />
          </mxGeometry>
        </mxCell>
        <mxCell id="oHwL_k7ugt9B2P9wREWz-51" value="View file structure" style="ellipse;whiteSpace=wrap;html=1;fillColor=#d5e8d4;strokeColor=#82b366;" parent="oHwL_k7ugt9B2P9wREWz-103" vertex="1">
          <mxGeometry x="269.9947368421053" y="170.0018181818182" width="113.68421052631578" height="72.72727272727273" as="geometry" />
        </mxCell>
        <mxCell id="oHwL_k7ugt9B2P9wREWz-52" value="&amp;lt;&amp;lt;includes&amp;gt;&amp;gt;" style="edgeStyle=none;rounded=0;orthogonalLoop=1;jettySize=auto;html=1;dashed=1;endArrow=block;endFill=1;" parent="oHwL_k7ugt9B2P9wREWz-103" source="oHwL_k7ugt9B2P9wREWz-51" target="oHwL_k7ugt9B2P9wREWz-35" edge="1">
          <mxGeometry x="9.473684210526315" as="geometry">
            <mxPoint x="212.20894636955938" y="271.58995059666154" as="sourcePoint" />
            <mxPoint x="337.154273603296" y="245.45274495777997" as="targetPoint" />
          </mxGeometry>
        </mxCell>
        <mxCell id="oHwL_k7ugt9B2P9wREWz-101" value="&lt;b&gt;&lt;font style=&quot;font-size: 14px&quot;&gt;Data management&lt;/font&gt;&lt;/b&gt;" style="text;html=1;strokeColor=none;fillColor=none;align=center;verticalAlign=middle;whiteSpace=wrap;rounded=0;" parent="oHwL_k7ugt9B2P9wREWz-103" vertex="1">
          <mxGeometry x="22.736842105263158" width="135.4736842105263" height="18.181818181818183" as="geometry" />
        </mxCell>
        <mxCell id="oHwL_k7ugt9B2P9wREWz-145" value="Trigger cleanup" style="ellipse;whiteSpace=wrap;html=1;" parent="oHwL_k7ugt9B2P9wREWz-103" vertex="1">
          <mxGeometry x="20.006842105263182" y="169.99992424242427" width="113.68421052631578" height="72.72727272727273" as="geometry" />
        </mxCell>
        <mxCell id="mI56C_iZiRB9wJTdbjj_-2" value="&amp;lt;&amp;lt;extends&amp;gt;&amp;gt;" style="edgeStyle=orthogonalEdgeStyle;rounded=0;orthogonalLoop=1;jettySize=auto;html=1;exitX=0;exitY=0.5;exitDx=0;exitDy=0;entryX=1;entryY=0.5;entryDx=0;entryDy=0;endArrow=block;endFill=1;dashed=1;" edge="1" parent="oHwL_k7ugt9B2P9wREWz-103" source="mI56C_iZiRB9wJTdbjj_-1" target="oHwL_k7ugt9B2P9wREWz-51">
          <mxGeometry relative="1" as="geometry" />
        </mxCell>
        <mxCell id="mI56C_iZiRB9wJTdbjj_-1" value="View file" style="ellipse;whiteSpace=wrap;html=1;" vertex="1" parent="oHwL_k7ugt9B2P9wREWz-103">
          <mxGeometry x="489.9973684210527" y="169.9981818181818" width="113.68421052631578" height="72.72727272727273" as="geometry" />
        </mxCell>
        <mxCell id="oHwL_k7ugt9B2P9wREWz-137" value="Vaultionizer" style="text;html=1;strokeColor=none;fillColor=none;align=center;verticalAlign=middle;whiteSpace=wrap;rounded=0;fontSize=26;fontStyle=1" parent="1" vertex="1">
          <mxGeometry x="530" y="-50" width="40" height="20" as="geometry" />
        </mxCell>
        <mxCell id="oHwL_k7ugt9B2P9wREWz-142" style="edgeStyle=none;rounded=0;orthogonalLoop=1;jettySize=auto;html=1;exitX=1;exitY=0.75;exitDx=0;exitDy=0;endArrow=none;endFill=0;strokeWidth=3;fontSize=26;" parent="1" source="oHwL_k7ugt9B2P9wREWz-137" target="oHwL_k7ugt9B2P9wREWz-137" edge="1">
          <mxGeometry x="480" y="-50" as="geometry" />
        </mxCell>
        <mxCell id="lEFw9rb1TR4ohvg0zDty-2" value="Guest User" style="shape=umlActor;verticalLabelPosition=bottom;verticalAlign=top;html=1;outlineConnect=0;fontSize=22;" parent="1" vertex="1">
          <mxGeometry x="1554" y="710" width="100" height="170" as="geometry" />
        </mxCell>
        <mxCell id="lEFw9rb1TR4ohvg0zDty-4" style="edgeStyle=none;rounded=0;orthogonalLoop=1;jettySize=auto;html=1;endArrow=none;endFill=0;strokeWidth=3;exitX=0;exitY=0;exitDx=460.00000000000006;exitDy=120.5;exitPerimeter=0;" parent="1" source="oHwL_k7ugt9B2P9wREWz-93" target="lEFw9rb1TR4ohvg0zDty-2" edge="1">
          <mxGeometry relative="1" as="geometry">
            <mxPoint x="1330" y="697.7620417633409" as="sourcePoint" />
            <mxPoint x="1710.9999999999995" y="892.24" as="targetPoint" />
          </mxGeometry>
        </mxCell>
        <mxCell id="lEFw9rb1TR4ohvg0zDty-6" value="" style="group" parent="1" vertex="1" connectable="0">
          <mxGeometry x="240" y="-10" width="220" height="120" as="geometry" />
        </mxCell>
        <mxCell id="oHwL_k7ugt9B2P9wREWz-146" value="" style="rounded=0;whiteSpace=wrap;html=1;fontSize=22;" parent="lEFw9rb1TR4ohvg0zDty-6" vertex="1">
          <mxGeometry width="220" height="120" as="geometry" />
        </mxCell>
        <mxCell id="oHwL_k7ugt9B2P9wREWz-147" value="" style="rounded=0;whiteSpace=wrap;html=1;fontSize=22;fillColor=#d5e8d4;strokeColor=#82b366;" parent="lEFw9rb1TR4ohvg0zDty-6" vertex="1">
          <mxGeometry x="10" y="15" width="80" height="30" as="geometry" />
        </mxCell>
        <mxCell id="oHwL_k7ugt9B2P9wREWz-148" value="&lt;font style=&quot;font-size: 16px&quot;&gt;Tasks for this semester&lt;br&gt;&lt;/font&gt;" style="text;html=1;strokeColor=none;fillColor=none;align=center;verticalAlign=middle;whiteSpace=wrap;rounded=0;fontSize=22;" parent="lEFw9rb1TR4ohvg0zDty-6" vertex="1">
          <mxGeometry x="110" y="20" width="100" height="20" as="geometry" />
        </mxCell>
        <mxCell id="oHwL_k7ugt9B2P9wREWz-150" value="" style="rounded=0;whiteSpace=wrap;html=1;fontSize=22;" parent="lEFw9rb1TR4ohvg0zDty-6" vertex="1">
          <mxGeometry x="10" y="70" width="80" height="30" as="geometry" />
        </mxCell>
        <mxCell id="oHwL_k7ugt9B2P9wREWz-151" value="&lt;font style=&quot;font-size: 16px&quot;&gt;Tasks for next semester&lt;br&gt;&lt;/font&gt;" style="text;html=1;strokeColor=none;fillColor=none;align=center;verticalAlign=middle;whiteSpace=wrap;rounded=0;fontSize=22;" parent="lEFw9rb1TR4ohvg0zDty-6" vertex="1">
          <mxGeometry x="110" y="70" width="110" height="20" as="geometry" />
        </mxCell>
      </root>
    </mxGraphModel>
  </diagram>
</mxfile>
